REM DIRINDEX 1\2,1\3,1\4,1\5,1\6
REM DIRNAME "folder01","folder02","folder03","folder04","folder05","folder06"
TITLE ""
FILE "Disc1Track72.mp3" MP3
  TRACK 01 AUDIO
    TITLE "3:cjc161_01841"
    INDEX 01 00:00:00
  TRACK 02 AUDIO
    TITLE "4:cjc161_01842"
    INDEX 01 00:00:71
  TRACK 03 AUDIO
    TITLE "5:cjc161_01843"
    INDEX 01 00:02:64
  TRACK 04 AUDIO
    TITLE "6:cjc161_01844"
    INDEX 01 00:03:69
  TRACK 05 AUDIO
    TITLE "0:"
    INDEX 01 00:06:56
  TRACK 06 AUDIO
    TITLE "3:cjc161_01845"
    INDEX 01 00:07:12
  TRACK 07 AUDIO
    TITLE "4:cjc161_01846"
    INDEX 01 00:08:27
  TRACK 08 AUDIO
    TITLE "5:cjc161_01847"
    INDEX 01 00:09:27
  TRACK 09 AUDIO
    TITLE "6:cjc161_01848"
    INDEX 01 00:10:46
  TRACK 10 AUDIO
    TITLE "0:"
    INDEX 01 00:12:62
  TRACK 11 AUDIO
    TITLE "3:cjc161_01849"
    INDEX 01 00:13:23
  TRACK 12 AUDIO
    TITLE "4:cjc161_01850"
    INDEX 01 00:14:42
  TRACK 13 AUDIO
    TITLE "5:cjc161_01851"
    INDEX 01 00:15:35
  TRACK 14 AUDIO
    TITLE "6:cjc161_01852"
    INDEX 01 00:16:56
  TRACK 15 AUDIO
    TITLE "0:"
    INDEX 01 00:19:33
  TRACK 16 AUDIO
    TITLE "3:cjc161_01853"
    INDEX 01 00:19:64
  TRACK 17 AUDIO
    TITLE "4:cjc161_01854"
    INDEX 01 00:21:12
  TRACK 18 AUDIO
    TITLE "5:cjc161_01855"
    INDEX 01 00:22:14
  TRACK 19 AUDIO
    TITLE "0:"
    INDEX 01 00:23:39
  TRACK 20 AUDIO
    TITLE "3:cjc161_01856"
    INDEX 01 00:24:07
  TRACK 21 AUDIO
    TITLE "4:cjc161_01857"
    INDEX 01 00:25:24
  TRACK 22 AUDIO
    TITLE "5:cjc161_01858"
    INDEX 01 00:26:66
  TRACK 23 AUDIO
    TITLE "6:cjc161_01859"
    INDEX 01 00:28:03
  TRACK 24 AUDIO
    TITLE "0:"
    INDEX 01 00:32:14
  TRACK 25 AUDIO
    TITLE "3:cjc161_01860"
    INDEX 01 00:32:44
  TRACK 26 AUDIO
    TITLE "4:cjc161_01861"
    INDEX 01 00:33:57
  TRACK 27 AUDIO
    TITLE "5:cjc161_01862"
    INDEX 01 00:34:68
  TRACK 28 AUDIO
    TITLE "6:cjc161_01863"
    INDEX 01 00:36:08
  TRACK 29 AUDIO
    TITLE "0:"
    INDEX 01 00:41:50
  TRACK 30 AUDIO
    TITLE "3:cjc161_01864"
    INDEX 01 00:42:09
  TRACK 31 AUDIO
    TITLE "4:cjc161_01865"
    INDEX 01 00:43:43
  TRACK 32 AUDIO
    TITLE "5:cjc161_01866"
    INDEX 01 00:44:70
  TRACK 33 AUDIO
    TITLE "0:"
    INDEX 01 00:46:34
  TRACK 34 AUDIO
    TITLE "3:cjc161_01867"
    INDEX 01 00:46:71
  TRACK 35 AUDIO
    TITLE "4:cjc161_01868"
    INDEX 01 00:48:27
  TRACK 36 AUDIO
    TITLE "5:cjc161_01869"
    INDEX 01 00:49:15
  TRACK 37 AUDIO
    TITLE "0:"
    INDEX 01 00:50:49
  TRACK 38 AUDIO
    TITLE "3:cjc161_01870"
    INDEX 01 00:51:06
  TRACK 39 AUDIO
    TITLE "4:cjc161_01871"
    INDEX 01 00:52:13
  TRACK 40 AUDIO
    TITLE "5:cjc161_01872"
    INDEX 01 00:53:10
  TRACK 41 AUDIO
    TITLE "6:cjc161_01873"
    INDEX 01 00:54:20
  TRACK 42 AUDIO
    TITLE "0:"
    INDEX 01 00:57:26
  TRACK 43 AUDIO
    TITLE "3:cjc161_01874"
    INDEX 01 00:57:59
  TRACK 44 AUDIO
    TITLE "4:cjc161_01875"
    INDEX 01 00:59:03
  TRACK 45 AUDIO
    TITLE "5:cjc161_01876"
    INDEX 01 01:01:35
  TRACK 46 AUDIO
    TITLE "6:cjc161_01877"
    INDEX 01 01:02:54
  TRACK 47 AUDIO
    TITLE "0:"
    INDEX 01 01:06:21
  TRACK 48 AUDIO
    TITLE "3:cjc161_01878"
    INDEX 01 01:06:58
  TRACK 49 AUDIO
    TITLE "4:cjc161_01879"
    INDEX 01 01:08:12
  TRACK 50 AUDIO
    TITLE "5:cjc161_01880"
    INDEX 01 01:11:16
  TRACK 51 AUDIO
    TITLE "6:cjc161_01881"
    INDEX 01 01:12:45
  TRACK 52 AUDIO
    TITLE "0:"
    INDEX 01 01:16:53
  TRACK 53 AUDIO
    TITLE "3:cjc161_01882"
    INDEX 01 01:17:09
  TRACK 54 AUDIO
    TITLE "4:cjc161_01883"
    INDEX 01 01:18:54
  TRACK 55 AUDIO
    TITLE "5:cjc161_01884"
    INDEX 01 01:20:72
  TRACK 56 AUDIO
    TITLE "6:cjc161_01885"
    INDEX 01 01:22:42
  TRACK 57 AUDIO
    TITLE "0:"
    INDEX 01 01:25:24
  TRACK 58 AUDIO
    TITLE "3:cjc161_01886"
    INDEX 01 01:25:54
  TRACK 59 AUDIO
    TITLE "4:cjc161_01887"
    INDEX 01 01:27:09
  TRACK 60 AUDIO
    TITLE "5:cjc161_01888"
    INDEX 01 01:29:36
  TRACK 61 AUDIO
    TITLE "0:"
    INDEX 01 01:30:66
  TRACK 62 AUDIO
    TITLE "3:cjc161_01889"
    INDEX 01 01:31:25
  TRACK 63 AUDIO
    TITLE "4:cjc161_01890"
    INDEX 01 01:32:58
  TRACK 64 AUDIO
    TITLE "5:cjc161_01891"
    INDEX 01 01:34:19
  TRACK 65 AUDIO
    TITLE "6:cjc161_01892"
    INDEX 01 01:35:52
  TRACK 66 AUDIO
    TITLE "0:"
    INDEX 01 01:38:70
